<svg width="70" height="70" viewBox="0 0 70 70" fill="none" xmlns="http://www.w3.org/2000/svg">
<path d="M10.2888 62.4109L4.79053 0.739258H65.2093L59.7055 62.4016L34.9633 69.2611L10.2888 62.4109Z" fill="#1572B6"/>
<path d="M35.0005 64.0185L54.9937 58.4753L59.6974 5.78174H35.0005V64.0185Z" fill="#33A9DC"/>
<path d="M35.0005 28.1251H45.0094L45.7006 20.3797H35.0005V12.8159H53.9672L53.7856 14.8454L51.9263 35.689H35.0005V28.1251Z" fill="white"/>
<path d="M35.0453 47.7689L35.0119 47.7787L26.5884 45.5043L26.0497 39.4717H18.458L19.5173 51.3482L35.0108 55.6482L35.0453 55.6384V47.7689Z" fill="#EBEBEB"/>
<path d="M44.3662 35.3691L43.4551 45.4984L35.019 47.7755V55.6451L50.5251 51.3477L50.6389 50.0697L51.9547 35.3691H44.3662Z" fill="white"/>
<path d="M35.0261 12.8159V20.3797H16.7561L16.6046 18.6801L16.2601 14.8454L16.0791 12.8159H35.0261ZM35.0004 28.1262V35.6901H26.683L26.5315 33.9904L26.1864 30.1557L26.006 28.1262H35.0004Z" fill="#EBEBEB"/>
</svg>
