<svg width="70" height="70" viewBox="0 0 70 70" fill="none" xmlns="http://www.w3.org/2000/svg">
<g clip-path="url(#clip0_330_730)">
<path d="M24.8828 70.5469C31.3906 70.5469 36.6406 65.2969 36.6406 58.7891V47.0312H24.8828C18.375 47.0312 13.125 52.2812 13.125 58.7891C13.125 65.2969 18.375 70.5469 24.8828 70.5469Z" fill="#0ACF83"/>
<path d="M13.125 35.2734C13.125 28.7656 18.375 23.5156 24.8828 23.5156H36.6406V47.0312H24.8828C18.375 47.0312 13.125 41.7812 13.125 35.2734Z" fill="#A259FF"/>
<path d="M13.125 11.7578C13.125 5.25 18.375 0 24.8828 0H36.6406V23.5156H24.8828C18.375 23.5156 13.125 18.2656 13.125 11.7578Z" fill="#F24E1E"/>
<path d="M36.6406 0H48.3984C54.9062 0 60.1562 5.25 60.1562 11.7578C60.1562 18.2656 54.9062 23.5156 48.3984 23.5156H36.6406V0Z" fill="#FF7262"/>
<path d="M60.1562 35.2734C60.1562 41.7812 54.9062 47.0312 48.3984 47.0312C41.8906 47.0312 36.6406 41.7812 36.6406 35.2734C36.6406 28.7656 41.8906 23.5156 48.3984 23.5156C54.9062 23.5156 60.1562 28.7656 60.1562 35.2734Z" fill="#1ABCFE"/>
</g>
<defs>
<clipPath id="clip0_330_730">
<rect width="70" height="70" fill="white"/>
</clipPath>
</defs>
</svg>
