<svg width="71" height="70" viewBox="0 0 71 70" fill="none" xmlns="http://www.w3.org/2000/svg">
<g clip-path="url(#clip0_331_161)">
<path d="M68.6842 31.9257L38.5426 1.78523C36.8079 0.0494532 33.9926 0.0494532 32.2552 1.78523L25.9968 8.04477L33.9363 15.9843C35.782 15.3614 37.8973 15.7792 39.3679 17.2498C40.8461 18.7296 41.2606 20.863 40.6224 22.7147L48.2743 30.3671C50.1254 29.7289 52.2621 30.1413 53.7397 31.6222C55.8069 33.6877 55.8069 37.0362 53.7397 39.1029C53.2485 39.5944 52.6652 39.9843 52.0232 40.2503C51.3813 40.5163 50.6932 40.6532 49.9983 40.6532C49.3034 40.6532 48.6153 40.5163 47.9733 40.2503C47.3314 39.9843 46.7481 39.5944 46.2568 39.1029C45.519 38.3643 45.016 37.4239 44.8111 36.4001C44.6063 35.3764 44.7088 34.3149 45.1057 33.3492L37.97 26.2136L37.9689 44.9938C38.4867 45.2487 38.9594 45.5864 39.3684 45.9935C41.4345 48.0591 41.4345 51.4065 39.3684 53.4764C37.3018 55.542 33.9522 55.542 31.8877 53.4764C29.8216 51.407 29.8216 48.0596 31.8877 45.9935C32.3832 45.4983 32.9718 45.1061 33.6197 44.8396V25.8855C32.9711 25.6201 32.3822 25.2276 31.8877 24.731C30.3225 23.167 29.9457 20.8701 30.7486 18.9473L22.9211 11.1198L2.25364 31.7863C1.41982 32.6203 0.951416 33.7514 0.951416 34.9308C0.951416 36.1102 1.41982 37.2412 2.25364 38.0753L32.3957 68.2158C34.1315 69.9516 36.9457 69.9516 38.6843 68.2158L68.6847 38.2153C69.5184 37.381 69.9866 36.2498 69.9865 35.0704C69.9864 33.891 69.518 32.7599 68.6842 31.9257Z" fill="#F34F29"/>
</g>
<defs>
<clipPath id="clip0_331_161">
<rect width="70" height="70" fill="white" transform="translate(0.46875)"/>
</clipPath>
</defs>
</svg>
