<svg width="70" height="70" viewBox="0 0 70 70" fill="none" xmlns="http://www.w3.org/2000/svg">
<path d="M12.9107 59.5022L7.99536 4.375H62.0047L57.0829 59.4934L34.9672 65.625L12.9107 59.5022Z" fill="#E44F26"/>
<path d="M35 60.9392L52.8719 55.9846L57.0762 8.8833H35V60.9392Z" fill="#F1662A"/>
<path d="M35 29.3276H26.0531L25.4363 22.4041H35V15.6426H18.0469L18.2088 17.4582L19.8691 36.0891H35V29.3276ZM35 46.8866L34.9694 46.8954L27.44 44.8632L26.9588 39.471H20.1709L21.1181 50.0848L34.9694 53.9304L35 53.9216V46.8866Z" fill="#EBEBEB"/>
<path d="M34.9758 29.3276V36.0891H43.3015L42.5183 44.8588L34.9758 46.8932V53.9282L48.838 50.0848L48.9386 48.9429L50.5268 31.1432L50.693 29.3276H34.9758ZM34.9758 15.6426V22.4041H51.3077L51.4433 20.886L51.7518 17.4582L51.9136 15.6426H34.9758Z" fill="white"/>
</svg>
