<svg width="32" height="32" viewBox="0 0 32 32" fill="none" xmlns="http://www.w3.org/2000/svg">
<path d="M16 10.5C14.9122 10.5 13.8488 10.8226 12.9444 11.4269C12.0399 12.0313 11.3349 12.8902 10.9187 13.8952C10.5024 14.9002 10.3935 16.0061 10.6057 17.073C10.8179 18.1399 11.3417 19.1199 12.1109 19.8891C12.8801 20.6583 13.8601 21.1821 14.927 21.3943C15.9939 21.6065 17.0998 21.4976 18.1048 21.0813C19.1098 20.6651 19.9687 19.9601 20.5731 19.0556C21.1774 18.1512 21.5 17.0878 21.5 16C21.4983 14.5418 20.9184 13.1438 19.8873 12.1127C18.8562 11.0816 17.4582 10.5017 16 10.5ZM16 20.5C15.11 20.5 14.24 20.2361 13.4999 19.7416C12.7599 19.2471 12.1831 18.5443 11.8425 17.7221C11.5019 16.8998 11.4128 15.995 11.5865 15.1221C11.7601 14.2492 12.1887 13.4474 12.818 12.818C13.4474 12.1887 14.2492 11.7601 15.1221 11.5865C15.995 11.4128 16.8998 11.5019 17.7221 11.8425C18.5443 12.1831 19.2471 12.7599 19.7416 13.4999C20.2361 14.24 20.5 15.11 20.5 16C20.5 17.1935 20.0259 18.3381 19.182 19.182C18.3381 20.0259 17.1935 20.5 16 20.5ZM22 3.5H10C8.2767 3.50198 6.62455 4.18744 5.406 5.406C4.18744 6.62455 3.50198 8.2767 3.5 10V22C3.50198 23.7233 4.18744 25.3754 5.406 26.594C6.62455 27.8126 8.2767 28.498 10 28.5H22C23.7233 28.498 25.3754 27.8126 26.594 26.594C27.8126 25.3754 28.498 23.7233 28.5 22V10C28.498 8.2767 27.8126 6.62455 26.594 5.406C25.3754 4.18744 23.7233 3.50198 22 3.5ZM27.5 22C27.4983 23.4582 26.9184 24.8562 25.8873 25.8873C24.8562 26.9184 23.4582 27.4983 22 27.5H10C8.54182 27.4983 7.14383 26.9184 6.11274 25.8873C5.08165 24.8562 4.50165 23.4582 4.5 22V10C4.50165 8.54182 5.08165 7.14383 6.11274 6.11274C7.14383 5.08165 8.54182 4.50165 10 4.5H22C23.4582 4.50165 24.8562 5.08165 25.8873 6.11274C26.9184 7.14383 27.4983 8.54182 27.5 10V22ZM23.5 9.5C23.5 9.69778 23.4414 9.89112 23.3315 10.0556C23.2216 10.22 23.0654 10.3482 22.8827 10.4239C22.7 10.4996 22.4989 10.5194 22.3049 10.4808C22.1109 10.4422 21.9327 10.347 21.7929 10.2071C21.653 10.0673 21.5578 9.88907 21.5192 9.69509C21.4806 9.50111 21.5004 9.30004 21.5761 9.11732C21.6518 8.93459 21.78 8.77841 21.9444 8.66853C22.1089 8.55865 22.3022 8.5 22.5 8.5C22.7652 8.5 23.0196 8.60536 23.2071 8.79289C23.3946 8.98043 23.5 9.23478 23.5 9.5Z" fill="white"/>
</svg>
