<svg width="70" height="70" viewBox="0 0 70 70" fill="none" xmlns="http://www.w3.org/2000/svg">
<path d="M4.375 4.375H65.625V65.625H4.375V4.375Z" fill="#F5DE19"/>
<path d="M45.5197 52.2266C46.0424 53.286 46.8533 54.1765 47.8594 54.7956C48.8655 55.4147 50.0259 55.7374 51.2072 55.7266C53.5915 55.7266 55.1162 54.5345 55.1162 52.8829C55.1162 50.9141 53.55 50.2098 50.925 49.0613L49.4856 48.4445C45.3293 46.6748 42.5731 44.4588 42.5731 39.7732C42.5731 35.4573 45.8543 32.1695 51.0015 32.1695C52.6677 32.0494 54.3324 32.4225 55.788 33.2421C57.2436 34.0617 58.4258 35.2916 59.1872 36.7785L54.6875 39.6551C54.3941 38.9179 53.8838 38.2872 53.224 37.8466C52.5642 37.4059 51.7861 37.1761 50.9928 37.1876C50.6466 37.1529 50.2971 37.1908 49.9663 37.2987C49.6356 37.4066 49.331 37.5822 49.0719 37.8143C48.8128 38.0465 48.6049 38.33 48.4615 38.647C48.318 38.9639 48.2422 39.3072 48.2387 39.6551C48.2387 41.381 49.3084 42.081 51.7781 43.1551L53.2175 43.772C58.1087 45.8698 60.8737 48.007 60.8737 52.8129C60.8737 57.9951 56.8028 60.8345 51.3362 60.8345C49.2065 60.9688 47.0833 60.4846 45.2223 59.4402C43.3614 58.3958 41.842 56.8358 40.8472 54.9479L45.5197 52.2266ZM25.1868 52.7254C26.0903 54.3288 26.9128 55.6851 28.8903 55.6851C30.7803 55.6851 31.9747 54.9457 31.9747 52.0691V32.4976H37.73V52.1457C37.73 58.1045 34.23 60.817 29.1353 60.817C27.3344 60.9154 25.5459 60.4666 24.0049 59.5296C22.4639 58.5925 21.2425 57.2111 20.5012 55.567L25.1868 52.7254Z" fill="black"/>
</svg>
