<svg width="69" height="62" viewBox="0 0 69 62" fill="none" xmlns="http://www.w3.org/2000/svg">
<path d="M34.2344 37.2344C37.6775 37.2344 40.4688 34.4432 40.4688 31C40.4688 27.5569 37.6775 24.7656 34.2344 24.7656C30.7912 24.7656 28 27.5569 28 31C28 34.4432 30.7912 37.2344 34.2344 37.2344Z" fill="#61DAFB"/>
<path d="M57.9141 20.7188C56.7109 20.2812 55.4531 19.8438 54.1406 19.4609C54.4688 18.1484 54.7422 16.8359 54.9609 15.5781C56.1094 8.35937 54.8516 3.27344 51.3516 1.30469C50.3125 0.703125 49.1641 0.429688 47.8516 0.429688C44.0234 0.429688 39.1562 3.27344 34.2344 8.03125C29.3125 3.27344 24.4453 0.429688 20.6172 0.429688C19.3047 0.429688 18.1562 0.703125 17.1172 1.30469C13.6172 3.32812 12.3594 8.41406 13.5078 15.5781C13.7266 16.8359 14 18.1484 14.3281 19.4609C13.0156 19.8438 11.7578 20.2266 10.5547 20.7188C3.71875 23.3438 0 26.9531 0 31C0 35.0469 3.77344 38.6563 10.5547 41.2813C11.7578 41.7188 13.0156 42.1562 14.3281 42.5391C14 43.8516 13.7266 45.1641 13.5078 46.4219C12.3594 53.6406 13.6172 58.7266 17.1172 60.6953C18.1562 61.2969 19.3047 61.5703 20.6172 61.5703C24.5 61.5703 29.3672 58.7266 34.2344 53.9688C39.1562 58.7266 44.0234 61.5703 47.8516 61.5703C49.1641 61.5703 50.3125 61.2969 51.3516 60.6953C54.8516 58.6719 56.1094 53.5859 54.9609 46.4219C54.7422 45.1641 54.4688 43.8516 54.1406 42.5391C55.4531 42.1562 56.7109 41.7734 57.9141 41.2813C64.75 38.6563 68.4688 35.0469 68.4688 31C68.4688 26.9531 64.75 23.3438 57.9141 20.7188ZM49.8203 4.03906C52.0625 5.35156 52.8281 9.39844 51.8984 15.1406C51.7344 16.2891 51.4609 17.4922 51.1328 18.75C48.2891 18.0938 45.2812 17.6562 42.1094 17.3828C40.25 14.7578 38.3359 12.4062 36.4219 10.2734C40.4688 6.28125 44.5703 3.54688 47.9062 3.54688C48.6172 3.54688 49.2734 3.71094 49.8203 4.03906ZM43.6953 36.4688C42.7109 38.2188 41.5625 39.9688 40.3594 41.7188C38.3359 41.8828 36.3125 41.9375 34.2344 41.9375C32.1016 41.9375 30.0781 41.8828 28.1094 41.7188C26.9062 39.9688 25.8125 38.2188 24.8281 36.4688C23.7891 34.6641 22.8047 32.8047 21.9297 31C22.8047 29.1953 23.7891 27.3359 24.8281 25.5312C25.8125 23.7812 26.9609 22.0313 28.1641 20.2813C30.1875 20.1172 32.2109 20.0625 34.2891 20.0625C36.4219 20.0625 38.4453 20.1172 40.4141 20.2813C41.6172 22.0313 42.7109 23.7812 43.6953 25.5312C44.7344 27.3359 45.7188 29.1953 46.5938 31C45.6641 32.8047 44.7344 34.6094 43.6953 36.4688ZM48.2344 34.6641C49.0547 36.5781 49.7109 38.4375 50.3125 40.2969C48.4531 40.7344 46.4844 41.0625 44.4062 41.3359C45.0625 40.2969 45.7734 39.2031 46.375 38.0547C47.0312 36.9062 47.6328 35.7578 48.2344 34.6641ZM34.2344 49.4844C32.9219 48.0625 31.6641 46.5312 30.4609 44.9453C31.7187 45 32.9766 45.0547 34.2344 45.0547C35.4922 45.0547 36.75 45 38.0078 44.9453C36.8047 46.5312 35.5469 48.0625 34.2344 49.4844ZM24.0625 41.2813C21.9844 41.0078 20.0156 40.6797 18.1562 40.2422C18.7578 38.4375 19.4141 36.5234 20.2344 34.6094C20.8359 35.7031 21.4375 36.8516 22.0937 37.9453C22.75 39.1484 23.4062 40.1875 24.0625 41.2813ZM20.2344 27.3359C19.4141 25.4219 18.7578 23.5625 18.1562 21.7031C20.0156 21.2656 21.9844 20.9375 24.0625 20.6641C23.4062 21.7031 22.6953 22.7969 22.0937 23.9453C21.4375 25.0938 20.8359 26.2422 20.2344 27.3359ZM34.2344 12.5156C35.5469 13.9375 36.8047 15.4688 38.0078 17.0547C36.75 17 35.4922 16.9453 34.2344 16.9453C32.9766 16.9453 31.7187 17 30.4609 17.0547C31.6641 15.4688 32.9219 13.9375 34.2344 12.5156ZM46.375 24L44.4062 20.7188C46.4844 20.9922 48.4531 21.3203 50.3125 21.7578C49.7109 23.5625 49.0547 25.4766 48.2344 27.3906C47.6328 26.2422 47.0312 25.0938 46.375 24ZM16.5703 15.1406C15.6406 9.39844 16.4062 5.35156 18.6484 4.03906C19.1953 3.71094 19.8516 3.54688 20.5625 3.54688C23.8438 3.54688 27.9453 6.22656 32.0469 10.2734C30.1328 12.3516 28.2187 14.7578 26.3594 17.3828C23.1875 17.6562 20.1797 18.1484 17.3359 18.75C17.0078 17.4922 16.7891 16.2891 16.5703 15.1406ZM3.0625 31C3.0625 28.4297 6.17969 25.6953 11.6484 23.6719C12.7422 23.2344 13.9453 22.8516 15.1484 22.5234C16.0234 25.2578 17.1172 28.1562 18.4297 31.0547C17.1172 33.9531 15.9688 36.7969 15.1484 39.5312C7.60156 37.3438 3.0625 34.0625 3.0625 31ZM18.6484 57.9609C16.4062 56.6484 15.6406 52.6016 16.5703 46.8594C16.7344 45.7109 17.0078 44.5078 17.3359 43.25C20.1797 43.9062 23.1875 44.3438 26.3594 44.6172C28.2187 47.2422 30.1328 49.5938 32.0469 51.7266C28 55.7188 23.8984 58.4531 20.5625 58.4531C19.8516 58.4531 19.1953 58.2891 18.6484 57.9609ZM51.8984 46.8594C52.8281 52.6016 52.0625 56.6484 49.8203 57.9609C49.2734 58.2891 48.6172 58.4531 47.9062 58.4531C44.625 58.4531 40.5234 55.7734 36.4219 51.7266C38.3359 49.6484 40.25 47.2422 42.1094 44.6172C45.2812 44.3438 48.2891 43.8516 51.1328 43.25C51.4609 44.5078 51.6797 45.7109 51.8984 46.8594ZM56.8203 38.3281C55.7266 38.7656 54.5234 39.1484 53.3203 39.4766C52.4453 36.7422 51.3516 33.8438 50.0391 30.9453C51.3516 28.0469 52.5 25.2031 53.3203 22.4688C60.8672 24.6563 65.4062 27.9375 65.4062 31C65.4062 33.5703 62.2344 36.3047 56.8203 38.3281Z" fill="#61DAFB"/>
</svg>
