<svg width="71" height="70" viewBox="0 0 71 70" fill="none" xmlns="http://www.w3.org/2000/svg">
<path d="M35.8428 40.9062C34.7907 41.3896 33.6378 42.0196 31.33 43.2862C30.455 43.7784 29.5407 44.2706 28.6897 44.7343C28.6307 44.6753 28.5694 44.6009 28.5104 44.5396C23.945 39.6615 15.5013 36.2162 15.86 29.6646C15.9935 27.2781 16.8138 21.0131 32.076 13.4049C44.6366 7.21432 54.6313 8.92932 56.3572 12.7334C58.8378 18.1562 51 28.2471 38.0282 29.7106C36.5925 30.0016 35.1098 29.9664 33.6895 29.6074C32.2693 29.2485 30.9479 28.575 29.8228 27.6368C29.136 26.8909 29.0332 26.8471 28.7794 26.9959C28.3616 27.2146 28.6307 27.8906 28.7794 28.2778C29.2742 29.1736 29.9436 29.9612 30.7481 30.5939C31.5525 31.2267 32.4756 31.6917 33.4629 31.9615C38.5676 33.0649 43.89 32.5377 48.6791 30.4543C56.541 27.4115 62.6791 18.9524 60.881 11.8606C59.0763 4.67026 47.1413 2.29901 35.8494 6.31088C28.7778 8.69393 22.2443 12.4453 16.6213 17.3512C10.4 23.1699 9.41566 28.2274 9.81816 30.3449C11.2663 37.8634 21.6307 42.7568 25.7869 46.3815C25.5711 46.4982 25.3822 46.6024 25.2203 46.6943C23.1466 47.7246 15.241 51.8568 13.27 56.2274C11.0322 61.1799 13.6288 64.7303 15.3438 65.2071C17.9283 65.8269 20.6418 65.6237 23.1052 64.6259C25.5686 63.6282 27.6587 61.8858 29.0835 59.6421C30.2938 57.782 31.037 55.6572 31.2498 53.4482C31.4627 51.2393 31.139 49.0116 30.3063 46.9546C30.7974 46.5625 31.3214 46.2134 31.8725 45.9112C32.9313 45.2856 33.9397 44.6687 34.8344 44.1918C37.8983 42.7587 41.241 42.0199 44.6235 42.0284C51.7241 42.864 53.1263 47.2937 52.8572 49.1596C52.7309 49.8215 52.4646 50.4487 52.076 50.9992C51.6874 51.5496 51.1855 52.0106 50.6041 52.3512C50.1119 52.664 49.9478 52.769 49.9916 52.9921C50.0507 53.3203 50.2891 53.3049 50.7069 53.2459C51.7737 52.9087 52.7136 52.2567 53.4031 51.3756C54.0926 50.4944 54.4994 49.4253 54.57 48.3087C54.7888 43.9337 50.6172 39.1343 43.2322 39.1781C41.0212 39.1845 38.8325 39.6206 36.7879 40.4621C36.4597 40.5978 36.1411 40.7436 35.8319 40.8996L35.8428 40.9062ZM25.2882 58.054C22.93 60.6199 19.6488 61.589 18.2313 60.7687C16.7 59.8937 17.306 56.0984 20.2 53.3837C21.9126 51.8376 23.7654 50.4542 25.7344 49.2515C26.0778 49.0328 26.5854 48.744 27.1957 48.3765L27.3597 48.2868L27.7185 48.0681C28.2342 49.7987 28.2809 51.6352 27.8539 53.3897C27.4269 55.1443 26.5414 56.7539 25.2882 58.054Z" fill="#CD6799"/>
</svg>
