<svg width="70" height="70" viewBox="0 0 70 70" fill="none" xmlns="http://www.w3.org/2000/svg">
<path d="M35 14.001C25.6665 14.001 19.8352 18.6658 17.5 27.9993C20.9989 23.3339 25.0835 21.5845 29.7489 22.751C32.4127 23.4149 34.3164 25.3464 36.4246 27.4869C39.8557 30.9689 43.8271 34.9999 52.5 34.9999C61.833 34.9999 67.6648 30.3345 70 20.9988C66.5 25.6665 62.4169 27.4169 57.7505 26.2499C55.0873 25.5854 53.1858 23.6544 51.0748 21.5139C47.6459 18.032 43.6756 14.001 35 14.001ZM17.5 34.9999C8.16703 34.9999 2.33516 39.6653 0 49.001C3.49964 44.3332 7.5826 42.5829 12.2489 43.7499C14.9127 44.4143 16.8164 46.3454 18.9246 48.4858C22.3557 51.9678 26.3271 55.9988 35 55.9988C44.333 55.9988 50.1648 51.3339 52.5 42.0004C49 46.666 44.9169 48.4155 40.2505 47.2488C37.5873 46.5849 35.6858 44.6533 33.5748 42.5129C30.1459 39.0309 26.1756 34.9999 17.5 34.9999Z" fill="#38BDF8"/>
</svg>
