<svg width="71" height="70" viewBox="0 0 71 70" fill="none" xmlns="http://www.w3.org/2000/svg">
<g clip-path="url(#clip0_311_8464)">
<path d="M68.3144 53.9526L36.8523 70V57.5016L56.4372 47.7775L68.3144 53.9469V53.9526ZM70.4688 52.1924V18.6336L58.9579 24.6322V46.2052L70.4688 52.1924ZM2.62308 53.9526L34.0852 70V57.5016L14.5003 47.7775L2.62308 53.9526ZM0.46875 52.1924V18.6336L11.9796 24.6322V46.2052L0.46875 52.1924ZM1.82074 16.4575L34.0852 0V12.0768L13.4074 22.3307L13.2431 22.4105L1.82074 16.4575ZM69.1168 16.4575L36.8523 0V12.0768L57.5301 22.3307L57.6944 22.4162L69.1168 16.4632V16.4575Z" fill="#8ED6FB"/>
<path d="M34.0852 54.6877L14.7405 45.0604V26.0622L34.0852 36.1338V54.6877ZM36.8524 54.6877L56.1972 45.0718V26.0622L36.8524 36.1338V54.6877ZM16.0482 23.9259L35.4688 14.2417L54.8894 23.869L35.4688 33.9748L16.0482 23.869V23.9259Z" fill="#1C78C0"/>
</g>
<defs>
<clipPath id="clip0_311_8464">
<rect width="70" height="70" fill="white" transform="translate(0.46875)"/>
</clipPath>
</defs>
</svg>
