<svg width="71" height="70" viewBox="0 0 71 70" fill="none" xmlns="http://www.w3.org/2000/svg">
<path d="M35.4687 5.8335C19.3978 5.8335 6.302 18.9293 6.302 35.0002C6.302 51.071 19.3978 64.1668 35.4687 64.1668C51.5395 64.1668 64.6353 51.071 64.6353 35.0002C64.6353 18.9293 51.5395 5.8335 35.4687 5.8335ZM9.24784 35.0002C9.24784 31.2085 10.0645 27.5918 11.5228 24.3252L24.0353 58.596C15.2853 54.3377 9.24784 45.3835 9.24784 35.0002ZM35.4687 61.221C32.902 61.221 30.4228 60.8418 28.0603 60.1418L35.9353 37.2752L43.9853 59.3543C44.0437 59.471 44.102 59.6168 44.1603 59.7043C41.4478 60.696 38.5312 61.221 35.4687 61.221ZM39.0853 22.6918C40.6603 22.6043 42.0895 22.4293 42.0895 22.4293C43.4895 22.2543 43.3437 20.1835 41.9145 20.271C41.9145 20.271 37.6562 20.5918 34.9145 20.5918C32.3478 20.5918 28.002 20.271 28.002 20.271C26.602 20.2127 26.427 22.371 27.8562 22.4585C27.8562 22.4585 29.1978 22.6335 30.5978 22.721L34.6812 33.921L28.9353 51.1293L19.3978 22.6918C20.9728 22.6335 22.402 22.4585 22.402 22.4585C23.802 22.2835 23.6562 20.2127 22.227 20.3002C22.227 20.3002 17.9687 20.621 15.227 20.621C14.7312 20.621 14.1478 20.621 13.5353 20.5918C18.2603 13.4752 26.3103 8.77933 35.4687 8.77933C42.2937 8.77933 48.5062 11.3752 53.1728 15.6627C53.0562 15.6627 52.9395 15.6335 52.8228 15.6335C50.2562 15.6335 48.4187 17.8793 48.4187 20.3002C48.4187 22.4585 49.6728 24.296 50.9853 26.4543C51.977 28.2043 53.1437 30.4502 53.1437 33.6877C53.1437 35.9335 52.2687 38.5293 51.1603 42.1752L48.5353 50.9252L39.0853 22.6918ZM58.4812 22.4293C61.7557 28.4253 62.5607 35.4624 60.7249 42.043C58.8891 48.6235 54.5575 54.2277 48.652 57.6627L56.6728 34.5043C58.1603 30.771 58.6562 27.7668 58.6562 25.1127C58.6562 24.1502 58.5978 23.246 58.4812 22.4293Z" fill="#47A2D7"/>
</svg>
